<?xml version="1.0" encoding="UTF-8"?>
<svg id="Layer_1" xmlns="http://www.w3.org/2000/svg" version="1.1" viewBox="0 0 312.8 74.2">
  <!-- Generator: Adobe Illustrator 29.0.0, SVG Export Plug-In . SVG Version: 2.1.0 Build 186)  -->
  <g>
    <path d="M79.1,22.5h.2c2.1-4.5,5-6.4,9.1-6.4s1.6,0,2,.2v8.4h-.2c-.7-.1-1.4-.2-2-.2-5.2,0-8.7,3.2-8.7,9.6v15.2h-9.6V16.6h9.3v5.8Z"/>
    <path d="M104.3,22.5h.2c2.1-4.5,5-6.4,9.1-6.4s1.6,0,2,.2v8.4h-.2c-.7-.1-1.4-.2-2-.2-5.2,0-8.7,3.2-8.7,9.6v15.2h-9.6V16.6h9.3v5.8Z"/>
    <path d="M118,33c0-9.8,6.9-17.3,17.3-17.3s17.2,7.5,17.2,17.3-6.8,17.3-17.2,17.3-17.3-7.6-17.3-17.3ZM142.8,33c0-6.2-2.7-10.4-7.5-10.4s-7.5,4.2-7.5,10.4,2.6,10.3,7.5,10.3,7.5-4.2,7.5-10.3Z"/>
    <path d="M157.5,3.6h9.7v45.7h-9.7V3.6Z"/>
    <path d="M174.3,60.1v-7.6h.5c.1,0,2.9,0,3.1,0,3,0,4.5-1.1,4.7-3.3,0-1.1-.6-3.6-1.7-6.6l-10.1-26.1h10.1l4.2,12.5c1.5,4.4,2.7,11.4,2.7,11.4h.1s1.5-7,2.9-11.4l4-12.5h9.6l-11.7,33.5c-2.6,7.6-5.7,10.1-11.9,10.1s-6.3,0-6.5-.1Z"/>
    <path d="M207.2,16.6h4.9V6.2h9.5v10.4h6.4v6.1h-6.4v16.2c0,2.5,1.4,3.1,3.6,3.1s1.6,0,2.2-.1h.5v7.2c-1,.2-3,.5-5.6.5-6.1,0-10.2-2-10.2-8.6v-18.3h-4.9v-6.1Z"/>
    <path d="M232.9,3.6h9.8v8.4h-9.8V3.6ZM233,16.6h9.6v32.7h-9.6V16.6Z"/>
    <path d="M247.5,33c0-9.8,6.7-17.3,17-17.3s14.1,5,15.3,12.1h-9.3c-.7-3-2.6-4.9-5.8-4.9-4.9,0-7.3,4-7.3,10.1s2.5,10,7.3,10,5.7-2.2,6.1-5.9h9.3c-.3,7.4-6.2,13.2-15.3,13.2s-17.2-7.6-17.2-17.3Z"/>
    <path d="M282.4,39.3h9.1c.6,3.1,2.9,4.8,6.6,4.8s5.4-1.4,5.4-3.7-3.9-3.3-8.4-4.2c-5.8-1.1-11.7-2.6-11.7-10.2s6.1-10.2,13.8-10.2,13.6,3.9,14.5,9.6h-9c-.6-2.3-2.5-3.5-5.5-3.5s-4.9,1.2-4.9,3.3,3.6,2.8,8,3.6c5.8,1,12.5,2.6,12.5,10.8s-6.3,10.8-14.7,10.8-15.2-4.5-15.7-11.1Z"/>
  </g>
  <g>
    <path d="M31.3,0c10.5,16.5,20.8,32.8,31.2,49.2-.7,0-1.1.1-1.6.1-4.1,0-8.2,0-12.3,0-.7,0-1.7-.5-2.1-1.1-7.4-11.5-14.7-23.1-22.1-34.7-.6-1-.7-1.7,0-2.7,2.3-3.5,4.5-7,6.8-10.8Z"/>
    <path d="M15.4,25c4.8,7.6,9.5,14.9,14.1,22.2,2.8,4.5,5.7,9,8.6,13.4.6.9.8,1.5.1,2.5-2.3,3.5-4.5,7.2-6.9,11-2.3-3.6-4.4-7-6.6-10.3-2.7-4.3-5.5-8.6-8.2-13-.7-1.2-1.5-1.6-2.9-1.6-4.4,0-8.8,0-13.6,0,5.2-8.2,10.2-16.1,15.4-24.4Z"/>
  </g>
</svg>